<svg id="Layer_1" data-name="Layer 1" xmlns="http://www.w3.org/2000/svg" viewBox="0 0 378.07 141.78"><title>CF_Logo_Tagline_</title><path d="M26,99.52c-15.54,0-26-10.31-26-20V20C0,10.31,10.5,0,26,0,41.34,0,51.36,10.31,51.36,20V38.49H30.41V22.9A4.07,4.07,0,0,0,26,18.82c-2.65,0-4.6,1.56-4.6,4.08V76.62c0,2.52,2,4.08,4.6,4.08a4.07,4.07,0,0,0,4.37-4.08V61H51.36V79.5C51.36,89.21,41.34,99.52,26,99.52Z" style="fill:#adadad"/><path d="M77.6,55.31V97.72H57.34V25.66H76.45l1.26,7.55c3-4.44,7.14-7.55,16.46-7.55v17C83,42.68,77.6,48.84,77.6,55.31Z" style="fill:#adadad"/><path d="M122.83,98.92c-13.58,0-24.63-7-24.63-17.63V43.4c0-10.79,11-17.74,24.63-17.74s24.63,7,24.63,17.74V81.29C147.46,92,136.41,98.92,122.83,98.92Zm4.37-54.68c0-2.4-2-3.47-4.37-3.47s-4.26,1.08-4.26,3.47V80.33c0,2.4,1.84,3.48,4.26,3.48s4.37-1.08,4.37-3.48Z" style="fill:#adadad"/><path d="M176.46,98.92c-14.85,0-23.71-7-23.71-17.63V74h18.53v6.11c0,2.4,1.84,4.08,4.83,4.08s4.72-1.2,4.72-5.28c0-6.35-4.72-8.27-15.42-13.91-10-5-12.31-12.11-12.31-19.78,0-14.75,10.7-19.54,23.36-19.54,13.7,0,23.13,7,23.13,17.74v6.71H181.18V44.6c0-2.4-1.27-3.84-4.26-3.84-3.22,0-4.72,1.44-4.72,4.92,0,5.28,3,5.75,10.82,9.83,14.62,7.31,16.92,16.42,16.92,24C199.94,89.57,193.15,98.92,176.46,98.92Z" style="fill:#adadad"/><path d="M228.14,98.92c-14.85,0-23.71-7-23.71-17.63V74H223v6.11c0,2.4,1.84,4.08,4.83,4.08s4.72-1.2,4.72-5.28c0-6.35-4.72-8.27-15.42-13.91-10-5-12.31-12.11-12.31-19.78,0-14.75,10.7-19.54,23.36-19.54,13.7,0,23.14,7,23.14,17.74v6.71H232.86V44.6c0-2.4-1.27-3.84-4.26-3.84-3.22,0-4.72,1.44-4.72,4.92,0,5.28,3,5.75,10.82,9.83,14.62,7.31,16.92,16.42,16.92,24C251.62,89.57,244.83,98.92,228.14,98.92Z" style="fill:#adadad"/><path d="M278.44,18.82V40.65h15.31V58.39H278.44V97.72H257.26V1.8h41.67v17Z" style="fill:#adadad"/><path d="M303.75,18.8V1.8h20.37v17Zm0,78.92V27h20.37V97.72Z" style="fill:#adadad"/><path d="M358,41.37V78.06c0,2,2,3.48,4.26,3.48h5.29V97.72h-9.67c-12.89,0-20.14-8.87-20.14-18V41.37H329V27h8.75V14.75H358V27H368.5V41.37Z" style="fill:#adadad"/><path d="M6.19,117.23v6.88h7v5h-7V141H0V112.21H15.76v5Z" style="fill:#adadad"/><path d="M27.36,141.78c-5.93,0-9.48-3.68-9.48-8.83V120.31c0-5.11,3.55-8.79,9.48-8.79s9.48,3.68,9.48,8.79v12.64C36.84,138.1,33.34,141.78,27.36,141.78ZM30.61,120a3,3,0,0,0-3.25-3.24,3,3,0,0,0-3.2,3.24V133.3a3,3,0,0,0,3.2,3.25,3,3,0,0,0,3.25-3.25Z" style="fill:#adadad"/><path d="M56,141.22c-2.51,0-3.46-1.73-3.46-4.41v-4.72c0-1.52-.78-2.82-2.55-2.82H46.67V141H40.48V112.21H50.87c4.67,0,7.49,2.68,7.49,6.84v3.12A4.59,4.59,0,0,1,54.64,127a4.85,4.85,0,0,1,3.85,4.76v4.72a3.65,3.65,0,0,0,1.21,2.94v1.82ZM52.38,119.4c0-1.43-.61-2.34-2.21-2.34H46.67V125h3.25a2.23,2.23,0,0,0,2.47-2.55Z" style="fill:#adadad"/><path d="M77.45,141l-.78-2.64a6.7,6.7,0,0,1-6.19,3.38c-5.71,0-8.62-3.94-8.62-8.4V119.87c0-4.29,3.42-8.35,9.57-8.35s9.27,3.85,9.27,8.35V122h-6V119.7c0-1.6-1-3-3.25-3a3,3,0,0,0-3.33,3.07v13.69a3.42,3.42,0,0,0,6.8,0v-3H71.57v-4.24h9.26V141Z" style="fill:#adadad"/><path d="M84.34,141V112.21h6.19V141Z" style="fill:#adadad"/><path d="M109,141l-6.36-11.56-2.47-4.72V141H94.51V112.21h5.15L105.85,124l2.34,4.72V112.21h5.58V141Z" style="fill:#adadad"/><path d="M133,141l-.78-2.64a6.7,6.7,0,0,1-6.19,3.38c-5.71,0-8.62-3.94-8.62-8.4V119.87c0-4.29,3.42-8.35,9.57-8.35s9.26,3.85,9.26,8.35V122h-6V119.7c0-1.6-1-3-3.25-3a3,3,0,0,0-3.33,3.07v13.69a3.42,3.42,0,0,0,6.8,0v-3h-3.38v-4.24h9.27V141Z" style="fill:#adadad"/><path d="M147.24,141V112.21h16.06v5.2h-9.87v6.32h6.8v4.67h-6.8v7.23h9.87V141Z" style="fill:#adadad"/><path d="M166.38,141V112.21h6.19v23.51H182V141Z" style="fill:#adadad"/><path d="M184.47,141V112.21h6.19V141Z" style="fill:#adadad"/><path d="M205.47,117.49V141h-6.19V117.49H193v-5.28h18.62v5.28Z" style="fill:#adadad"/><path d="M214,141V112.21h16.06v5.2h-9.87v6.32H227v4.67h-6.8v7.23h9.87V141Z" style="fill:#adadad"/><path d="M246.69,117.23v6.88h7v5h-7V141H240.5V112.21h15.76v5Z" style="fill:#adadad"/><path d="M258.68,141V112.21h6.19V141Z" style="fill:#adadad"/><path d="M279.68,117.49V141h-6.19V117.49h-6.24v-5.28h18.62v5.28Z" style="fill:#adadad"/><path d="M302.75,141l-6.36-11.56-2.47-4.72V141h-5.67V112.21h5.15L299.59,124l2.34,4.72V112.21h5.58V141Z" style="fill:#adadad"/><path d="M311.5,141V112.21h16.06v5.2h-9.87v6.32h6.8v4.67h-6.8v7.23h9.87V141Z" style="fill:#adadad"/><path d="M338.91,141.78c-5.67,0-9.27-3.25-9.27-8.19v-1.47h5.67v1c0,2.43,1.21,3.72,3.47,3.72a3,3,0,0,0,3.29-3.25c0-2.08-1.65-3.33-5-5.06s-7.14-4.16-7.14-8.57,3.16-8.4,9-8.4c5.28,0,8.79,3.55,8.79,8.14v1.17H342.2v-.91c0-1.95-1.08-3.47-3.25-3.47a2.74,2.74,0,0,0-3,2.86c0,2,1.65,3.16,5.32,5.07,4,2.21,6.84,4.46,6.84,8.66C348.13,137.71,344.67,141.78,338.91,141.78Z" style="fill:#adadad"/><path d="M359.3,141.78c-5.67,0-9.26-3.25-9.26-8.19v-1.47h5.67v1c0,2.43,1.21,3.72,3.46,3.72a3,3,0,0,0,3.29-3.25c0-2.08-1.64-3.33-5-5.06s-7.14-4.16-7.14-8.57,3.16-8.4,9-8.4c5.28,0,8.79,3.55,8.79,8.14v1.17h-5.59v-.91c0-1.95-1.08-3.47-3.25-3.47a2.74,2.74,0,0,0-3,2.86c0,2,1.64,3.16,5.33,5.07,4,2.21,6.84,4.46,6.84,8.66C368.52,137.71,365.06,141.78,359.3,141.78Z" style="fill:#adadad"/><path d="M377.12,33.16a3.23,3.23,0,1,1,.95-2.29A3.12,3.12,0,0,1,377.12,33.16Zm-4.25-4.25a2.69,2.69,0,0,0-.81,2,2.72,2.72,0,0,0,.8,2,2.77,2.77,0,0,0,3.93,0,2.81,2.81,0,0,0,0-3.94,2.77,2.77,0,0,0-3.93,0Zm1.9.18a2.66,2.66,0,0,1,1,.13.88.88,0,0,1,.55.9.77.77,0,0,1-.35.7,1.28,1.28,0,0,1-.51.17.86.86,0,0,1,.61.35,1,1,0,0,1,.19.55v.26c0,.08,0,.17,0,.26a.64.64,0,0,0,0,.18l0,0h-.59v-.47a.87.87,0,0,0-.33-.81,1.53,1.53,0,0,0-.7-.11h-.49v1.39h-.63V29.08Zm.67.56a1.65,1.65,0,0,0-.76-.13h-.53v1.28h.56a1.75,1.75,0,0,0,.59-.08.64.64,0,0,0,.13-1.07Z" style="fill:#adadad"/><path d="M377.12,117.72a3.23,3.23,0,1,1,.95-2.29A3.11,3.11,0,0,1,377.12,117.72Zm-4.25-4.25a2.69,2.69,0,0,0-.81,2,2.72,2.72,0,0,0,.8,2,2.77,2.77,0,0,0,3.93,0,2.81,2.81,0,0,0,0-3.95,2.77,2.77,0,0,0-3.93,0Zm1.9.18a2.66,2.66,0,0,1,1,.13.88.88,0,0,1,.55.9.77.77,0,0,1-.35.7,1.3,1.3,0,0,1-.51.17.86.86,0,0,1,.61.35,1,1,0,0,1,.19.55v.26c0,.08,0,.17,0,.26a.63.63,0,0,0,0,.18l0,0h-.59v-.47a.87.87,0,0,0-.33-.81,1.53,1.53,0,0,0-.7-.11h-.49v1.39h-.63v-3.54Zm.67.56a1.64,1.64,0,0,0-.76-.13h-.53v1.28h.56a1.69,1.69,0,0,0,.59-.08.64.64,0,0,0,.13-1.07Z" style="fill:#adadad"/></svg>
